<?xml version="1.0" encoding="UTF-8" standalone="no"?><!-- Generator: Gravit.io --><svg xmlns="http://www.w3.org/2000/svg" xmlns:xlink="http://www.w3.org/1999/xlink" style="isolation:isolate" viewBox="0 0 500 500" width="500pt" height="500pt"><defs><clipPath id="_clipPath_3zdqmUOSjmDe1hfPEl4tufQsLO6dFnOG"><rect width="500" height="500"/></clipPath></defs><g clip-path="url(#_clipPath_3zdqmUOSjmDe1hfPEl4tufQsLO6dFnOG)"><g><circle vector-effect="non-scaling-stroke" cx="250" cy="250" r="240" fill="rgb(0,88,132)"/><g><path d=" M 327.487 36.866 C 304.316 38.212 277.716 51.12 261.901 67.559 C 247.613 82.51 236.34 104.715 240.942 126.197 C 266.122 126.86 291.396 113.618 306.528 96.878 C 320.655 81.223 331.365 59.373 327.487 36.866 Z  M 328.86 126.158 C 292.507 126.158 277.308 148.491 252.128 148.491 C 226.225 148.491 202.545 127.571 171.196 127.571 C 128.553 127.591 63.731 167.092 63.731 260.155 C 63.731 344.818 140.45 438.779 183.756 438.779 C 210.061 439.04 216.438 422.239 252.128 422.058 C 287.858 421.797 295.568 439 321.913 438.779 C 351.574 438.558 374.739 405.963 391.659 380.14 C 403.797 361.652 408.787 352.213 418.192 331.314 C 348.4 313.63 334.514 201.081 418.192 177.81 C 402.397 150.862 356.291 126.158 328.86 126.158 Z " fill="rgb(0,0,0)"/><path d=" M 252.701 262.626 C 270.049 279.991 269.811 307.832 252.806 324.931 C 252.774 324.966 252.736 325.003 252.701 325.038 L 233.19 344.549 C 215.982 361.758 187.984 361.756 170.778 344.549 C 153.569 327.344 153.569 299.343 170.778 282.137 L 181.551 271.364 C 184.408 268.507 189.329 270.405 189.476 274.443 C 189.664 279.588 190.587 284.758 192.289 289.75 C 192.866 291.441 192.454 293.31 191.191 294.573 L 187.391 298.373 C 179.254 306.51 178.999 319.76 187.056 327.977 C 195.193 336.274 208.566 336.324 216.765 328.125 L 236.277 308.616 C 244.462 300.431 244.427 287.202 236.277 279.051 C 235.202 277.978 234.12 277.145 233.274 276.563 C 232.061 275.73 231.313 274.373 231.257 272.903 C 231.142 269.835 232.229 266.673 234.654 264.249 L 240.766 258.135 C 242.369 256.532 244.884 256.336 246.743 257.633 C 248.872 259.119 250.865 260.79 252.701 262.626 L 252.701 262.626 Z  M 293.621 221.704 C 276.415 204.498 248.417 204.496 231.209 221.704 L 211.698 241.215 C 211.663 241.25 211.625 241.288 211.593 241.323 C 194.589 258.422 194.35 286.263 211.698 303.628 C 213.533 305.464 215.527 307.134 217.656 308.621 C 219.514 309.918 222.029 309.721 223.632 308.118 L 229.745 302.005 C 232.169 299.58 233.256 296.419 233.141 293.351 C 233.085 291.881 232.337 290.524 231.124 289.691 C 230.279 289.109 229.197 288.275 228.122 287.203 C 219.971 279.052 219.937 265.822 228.122 257.637 L 247.633 238.129 C 255.832 229.93 269.206 229.979 277.343 238.277 C 285.4 246.494 285.145 259.743 277.007 267.88 L 273.208 271.68 C 271.945 272.943 271.533 274.813 272.109 276.503 C 273.812 281.495 274.734 286.665 274.923 291.81 C 275.07 295.848 279.99 297.747 282.847 294.89 L 293.621 284.116 C 310.83 266.911 310.83 238.91 293.621 221.704 L 293.621 221.704 Z " fill="rgb(255,255,255)"/></g></g></g></svg>